<?xml version="1.0" standalone="no"?>
<!DOCTYPE svg PUBLIC "-//W3C//DTD SVG 1.0//EN" "http://www.w3.org/TR/2001/REC-SVG-20010904/DTD/svg10.dtd">
<svg xmlns="http://www.w3.org/2000/svg" xmlns:xlink="http://www.w3.org/1999/xlink" id="body_1" width="83" height="58">

<g transform="matrix(0.18609866 0 0 0.18609866 -0 0.30941853)">
	<g transform="matrix(0.1 0 -0 -0.1 0 310)">
        <path d="M2735 2513C 2553 2488 2359 2380 2245 2240C 2202 2188 2124 2053 2132 2045C 2134 2043 2149 2067 2165 2098C 2202 2169 2343 2312 2423 2359C 2647 2491 2928 2500 3151 2383C 3333 2288 3471 2115 3526 1910C 3549 1824 3549 1650 3526 1555C 3475 1341 3321 1157 3114 1059C 3008 1009 2928 991 2805 989C 2715 988 2710 987 2750 978C 2809 966 2949 974 3031 995C 3066 1004 3138 1032 3190 1058C 3270 1097 3299 1118 3375 1195C 3477 1297 3520 1363 3561 1482C 3618 1650 3622 1790 3574 1957C 3529 2113 3453 2229 3323 2340C 3172 2470 2932 2540 2735 2513z" stroke="none" fill="#000000" fill-rule="nonzero" />
        <path d="M1639 2320C 1614 2304 1565 2262 1531 2228C 1422 2120 1364 2011 1353 1893L1353 1893L1347 1830L1306 1819C 1232 1800 1123 1741 1074 1694C 1047 1668 1034 1654 1045 1663C 1085 1694 1217 1750 1300 1771C 1347 1783 1387 1794 1389 1796C 1390 1797 1398 1834 1405 1876C 1428 2004 1511 2141 1622 2232L1622 2232L1667 2269L1663 2182C 1659 2122 1663 2073 1674 2025C 1690 1957 1740 1817 1746 1823C 1748 1825 1743 1850 1735 1880C 1726 1910 1716 1974 1711 2021C 1702 2100 1705 2141 1726 2279C 1732 2315 1730 2325 1715 2337C 1690 2354 1690 2354 1639 2320z" stroke="none" fill="#000000" fill-rule="nonzero" />
        <path d="M1930 2183C 1866 2152 1791 2080 1761 2022C 1749 1999 1740 1978 1740 1974C 1740 1970 1762 1988 1789 2013C 1836 2057 1926 2120 1941 2120C 1945 2120 1936 2092 1923 2058C 1900 2002 1879 1880 1893 1880C 1896 1880 1906 1902 1915 1929C 1924 1956 1955 2015 1985 2061C 2015 2106 2040 2152 2040 2161C 2040 2177 2005 2211 1990 2210C 1987 2209 1960 2197 1930 2183z" stroke="none" fill="#000000" fill-rule="nonzero" />
        <path d="M2404 2066C 2355 2044 2330 2005 2330 1950C 2330 1891 2354 1859 2422 1824C 2501 1784 2520 1760 2520 1700C 2520 1663 2515 1645 2500 1630C 2456 1586 2360 1621 2360 1680C 2360 1708 2378 1734 2402 1742C 2412 1746 2412 1750 2401 1763C 2382 1786 2363 1784 2335 1755C 2302 1723 2300 1655 2331 1617C 2383 1550 2536 1564 2574 1638C 2588 1666 2594 1704 2592 1752C 2589 1791 2546 1837 2480 1870C 2405 1908 2376 1943 2384 1989C 2391 2036 2416 2060 2457 2060C 2514 2060 2546 2009 2520 1960C 2508 1938 2520 1927 2544 1936C 2580 1950 2576 2029 2537 2054C 2503 2077 2440 2082 2404 2066z" stroke="none" fill="#000000" fill-rule="nonzero" />
        <path d="M2758 2068C 2709 2055 2643 1997 2631 1956C 2615 1896 2630 1860 2677 1846C 2699 1839 2699 1840 2683 1870C 2660 1917 2672 1968 2715 2008C 2780 2068 2780 2068 2780 1806L2780 1806L2780 1573L2809 1567C 2825 1564 2873 1538 2915 1510C 2958 1483 3001 1460 3012 1460C 3033 1460 3080 1502 3080 1522C 3080 1531 3062 1535 3017 1536C 2971 1536 2940 1543 2898 1564L2898 1564L2840 1591L2840 1836L2840 2080L2818 2079C 2805 2078 2779 2074 2758 2068z" stroke="none" fill="#000000" fill-rule="nonzero" />
        <path d="M3063 2066C 2955 2031 2899 1939 2946 1872C 2973 1834 2985 1845 2982 1904C 2976 2002 3029 2060 3125 2060C 3219 2060 3266 2005 3240 1925C 3227 1886 3197 1860 3163 1860C 3141 1860 3140 1864 3140 1936L3140 1936L3140 2011L3108 2008L3075 2005L3072 1793L3070 1580L3105 1580L3140 1580L3140 1710L3140 1840L3174 1840C 3211 1840 3239 1820 3241 1792C 3242 1783 3243 1735 3244 1686C 3245 1600 3246 1595 3271 1581C 3306 1562 3335 1572 3320 1599C 3315 1610 3310 1659 3310 1709C 3310 1815 3307 1826 3268 1846L3268 1846L3239 1861L3264 1890C 3313 1949 3303 2022 3241 2055C 3198 2077 3112 2082 3063 2066z" stroke="none" fill="#000000" fill-rule="nonzero" />
        <path d="M1840 1827C 1843 1824 1881 1808 1925 1790C 2028 1749 2125 1695 2145 1667C 2163 1642 2165 1597 2149 1569C 2133 1539 2156 1519 2274 1459C 2329 1430 2387 1399 2402 1389C 2421 1375 2446 1370 2497 1370C 2541 1370 2573 1365 2586 1356C 2605 1342 2605 1341 2584 1313C 2572 1298 2543 1274 2519 1259C 2486 1240 2471 1223 2459 1189L2459 1189L2442 1145L2223 1149C 2042 1152 1993 1149 1935 1135C 1749 1089 1614 964 1596 820L1596 820L1590 775L1604 822C 1641 951 1757 1048 1917 1086C 1973 1099 2010 1101 2130 1094C 2210 1089 2318 1085 2371 1085C 2480 1085 2502 1095 2517 1155C 2523 1179 2538 1197 2574 1222C 2633 1261 2665 1316 2655 1359C 2646 1403 2607 1423 2520 1428C 2454 1432 2430 1440 2323 1491L2323 1491L2200 1550L2200 1604C 2200 1672 2173 1708 2096 1744C 2025 1778 1824 1842 1840 1827z" stroke="none" fill="#000000" fill-rule="nonzero" />
        <path d="M1900 1678C 1874 1667 1876 1666 1923 1656C 1946 1651 1950 1644 1950 1617C 1950 1568 1974 1540 2016 1540C 2071 1540 2110 1565 2110 1600C 2110 1662 1978 1711 1900 1678zM2034 1598C 2024 1583 1991 1590 1980 1609C 1964 1639 1967 1641 2005 1623C 2024 1614 2037 1603 2034 1598z" stroke="none" fill="#000000" fill-rule="nonzero" />
        <path d="M1025 1583C 782 1406 652 1088 688 761C 695 702 706 634 713 610C 726 568 727 576 732 755C 735 860 743 972 750 1005C 791 1216 886 1405 1031 1564C 1059 1595 1080 1620 1079 1620C 1077 1620 1053 1603 1025 1583z" stroke="none" fill="#000000" fill-rule="nonzero" />
        <path d="M792 1005C 792 989 794 983 797 993C 799 1002 799 1016 797 1023C 794 1029 792 1022 792 1005z" stroke="none" fill="#000000" fill-rule="nonzero" />
        <path d="M777 860C 750 483 887 239 1187 130C 1416 47 1644 40 1850 110C 1897 125 2034 185 2155 243C 2389 354 2515 400 2645 421C 2746 437 3074 436 3203 421C 3318 407 3343 412 3243 430C 3000 472 2711 483 2567 456C 2463 436 2331 390 2187 324C 2120 293 2016 246 1957 219C 1803 149 1706 127 1545 127C 1309 128 1100 196 981 312C 850 440 802 589 787 920C 786 958 782 940 777 860z" stroke="none" fill="#000000" fill-rule="nonzero" />
        <path d="M877 876C 860 833 905 628 950 539C 997 447 1100 353 1171 335C 1192 330 1184 342 1126 402C 1042 488 991 581 926 769C 899 846 881 886 877 876z" stroke="none" fill="#000000" fill-rule="nonzero" />
        <path d="M3338 403C 3345 400 3354 401 3357 404C 3361 407 3355 410 3344 409C 3333 409 3330 406 3338 403z" stroke="none" fill="#000000" fill-rule="nonzero" />
	</g>
</g>
</svg>